# xmcd
#
# Track frame offsets: 
#        150
#        11120
#        25290
#        37965
#        49837
#        65562
#        78562
#        92457
#        106695
#        118735
#        130692
#        142505
#        156822
#
# Disc length: 2300 seconds
#
# Revision: 0
# Processed by: cddbd v1.5.2PL0 Copyright (c) Steve Scherf et al.
# Submitted via: ExactAudioCopy v0.99pb4
#
DISCID=9b08fa0d
DTITLE=West Coast Pinups - Caution: Swinging Doors
DYEAR=2001
DGENRE=Country
TTITLE0=L.A. Turnaround
TTITLE1=Lush Life
TTITLE2=Wasting Time
TTITLE3=Shadow On The Curtain
TTITLE4=One Good Reason
TTITLE5=Tennessee Hustler
TTITLE6=Drifting Away
TTITLE7=My Left Pocket
TTITLE8=Better Things To Do
TTITLE9=Back Of The Line
TTITLE10=Playing The Odds On Misery
TTITLE11=Let Tomorrow Morning Worry (About Last Night)
TTITLE12=New Spin On The Bottle
EXTD=
EXTT0=
EXTT1=
EXTT2=
EXTT3=
EXTT4=
EXTT5=
EXTT6=
EXTT7=
EXTT8=
EXTT9=
EXTT10=
EXTT11=
EXTT12=
PLAYORDER=
